# xmcd
#
# Track frame offsets: 
#        150
#        17035
#        35925
#        55800
#        75572
#        96417
#        118142
#        137787
#        167914
#        191024
#        208896
#        230473
#        252636
#        284806
#
# Disc length: 4130 seconds
#
# Revision: 0
# Processed by: cddbd v1.5.2PL0 Copyright (c) Steve Scherf et al.
# Submitted via: ExactAudioCopyFreeDBPlugin 1.0
#
DISCID=dd10200e
DTITLE=The Shiz - Meet You In The Morning
DYEAR=2015
DGENRE=Blues
TTITLE0=Juggernaut
TTITLE1=Oil Spill
TTITLE2=Tumble
TTITLE3=Happy Enough
TTITLE4=New Jim Crow
TTITLE5=Anybody Anymore
TTITLE6=Ride Out
TTITLE7=Boxcar
TTITLE8=I Will Not Sleep Through My Own Deliverance
TTITLE9=Sleep Baby, Slumber
TTITLE10=Grey Girl
TTITLE11=Driftin'
TTITLE12=The Rapture
TTITLE13=For The People
EXTD=
EXTT0=
EXTT1=
EXTT2=
EXTT3=
EXTT4=
EXTT5=
EXTT6=
EXTT7=
EXTT8=
EXTT9=
EXTT10=
EXTT11=
EXTT12=
EXTT13=
PLAYORDER=
